<svg xmlns="http://www.w3.org/2000/svg" width="375" height="90.001" viewBox="0 0 375 90.001">
  <g id="Subtraction_14" data-name="Subtraction 14" transform="translate(371 1794)" fill="#fbfbfb">
    <path d="M 3.500566005706787 -1704.498901367188 L -370.4997253417969 -1704.499755859375 L -370.4998474121094 -1793.499755859375 L -247.4977111816406 -1793.499755859375 C -247.3678436279297 -1776.484252929688 -240.6634826660156 -1760.489501953125 -228.5863342285156 -1748.4130859375 C -216.3907775878906 -1736.216674804688 -200.2011413574219 -1729.499877929688 -182.9997406005859 -1729.499877929688 C -151.8539428710938 -1729.499877929688 -125.2473373413086 -1751.64208984375 -119.580078125 -1782.207397460938 L -119.4999313354492 -1782.206176757812 C -119.4934234619141 -1782.434204101562 -119.4845275878906 -1782.621704101562 -119.471321105957 -1782.81005859375 C -119.3554840087891 -1783.472412109375 -119.2499313354492 -1784.1337890625 -119.1574172973633 -1784.776489257812 C -118.5450897216797 -1787.209716796875 -117.1127319335938 -1789.419799804688 -115.1220321655273 -1791.001831054688 C -113.0953369140625 -1792.61181640625 -110.5675354003906 -1793.4990234375 -108.0043334960938 -1793.499755859375 L 3.500516414642334 -1793.499755859375 L 3.500566005706787 -1704.498901367188 Z" stroke="none"/>
    <path d="M 3.000565767288208 -1704.998901367188 L 3.000516653060913 -1792.999755859375 L -108.0041809082031 -1792.999755859375 C -110.4549331665039 -1792.9990234375 -112.8723831176758 -1792.150390625 -114.8109359741211 -1790.610473632812 C -116.7095184326172 -1789.1015625 -118.0771942138672 -1786.996826171875 -118.6663436889648 -1784.678955078125 C -118.7574310302734 -1784.0478515625 -118.8609313964844 -1783.399291992188 -118.9743118286133 -1782.749633789062 C -118.9860458374023 -1782.576782226562 -118.9941101074219 -1782.40234375 -119.0001373291016 -1782.19189453125 L -119.0742950439453 -1782.192993164062 C -124.7541275024414 -1751.349731445312 -151.5855560302734 -1728.999877929688 -182.9997406005859 -1728.999877929688 C -200.3347320556641 -1728.999877929688 -216.6499328613281 -1735.768676757812 -228.9398803710938 -1748.059448242188 C -240.9935455322266 -1760.112426757812 -247.7363891601562 -1776.036865234375 -247.9920654296875 -1792.999755859375 L -369.9998474121094 -1792.999755859375 L -369.9997253417969 -1704.999755859375 L 3.000565767288208 -1704.998901367188 M 4.000566005706787 -1703.998779296875 L 4.000516414642334 -1703.998901367188 L -370.9997253417969 -1703.999755859375 L -370.9998474121094 -1793.999755859375 L -246.9996337890625 -1793.999755859375 C -246.9987335205078 -1776.931030273438 -240.334228515625 -1760.867309570312 -228.2327880859375 -1748.7666015625 C -216.1316375732422 -1736.664672851562 -200.0675811767578 -1729.999877929688 -182.9997406005859 -1729.999877929688 C -151.9608764648438 -1729.999877929688 -125.4654846191406 -1752.160888671875 -119.9996871948242 -1782.69384765625 L -119.9997329711914 -1782.220581054688 C -119.9922332763672 -1782.482177734375 -119.9818344116211 -1782.682739257812 -119.9682312011719 -1782.871215820312 C -119.8498306274414 -1783.546630859375 -119.7423858642578 -1784.219970703125 -119.6487350463867 -1784.872802734375 C -119.0133819580078 -1787.422119140625 -117.5162811279297 -1789.73779296875 -115.4331359863281 -1791.393310546875 C -113.3183822631836 -1793.0732421875 -110.6802368164062 -1793.998901367188 -108.0044860839844 -1793.999755859375 L 4.000516414642334 -1793.999755859375 L 4.000566005706787 -1703.999755859375 L 4.000566005706787 -1703.998779296875 Z" stroke="none" fill="#f1f1f1"/>
  </g>
</svg>
