<svg xmlns="http://www.w3.org/2000/svg" width="375" height="90.001" viewBox="0 0 375 90.001">
  <g id="Subtraction_14" data-name="Subtraction 14" transform="translate(0 1974)" fill="#fbfbfb">
    <path d="M 374.5003051757812 -1884.498901367188 L 0.5000178217887878 -1884.499755859375 L 0.5000178217887878 -1973.499755859375 L 113.1957702636719 -1973.499877929688 C 115.6906433105469 -1973.453247070312 118.1489639282227 -1972.56591796875 120.1182174682617 -1971.0009765625 C 122.1095581054688 -1969.418701171875 123.5420989990234 -1967.207641601562 124.1540374755859 -1964.772827148438 C 124.2480010986328 -1964.115356445312 124.3537521362305 -1963.449829101562 124.4684295654297 -1962.7939453125 C 124.4818115234375 -1962.6005859375 124.4903717041016 -1962.404663085938 124.4939193725586 -1962.21142578125 L 124.5729141235352 -1962.212036132812 C 126.9326477050781 -1949.40966796875 133.0961151123047 -1937.729858398438 142.4134674072266 -1928.4130859375 C 154.6099243164062 -1916.216674804688 170.799560546875 -1909.499877929688 188.0001220703125 -1909.499877929688 C 219.1459655761719 -1909.499877929688 245.7525329589844 -1931.642211914062 251.4197387695312 -1962.20751953125 L 251.4999237060547 -1962.206298828125 C 251.5064239501953 -1962.434936523438 251.5153198242188 -1962.622314453125 251.5285034179688 -1962.809692382812 C 251.6407165527344 -1963.447143554688 251.7462921142578 -1964.108642578125 251.8424530029297 -1964.776611328125 C 252.4547882080078 -1967.210083007812 253.8874206542969 -1969.420043945312 255.8786163330078 -1971.001831054688 C 257.9045104980469 -1972.61181640625 260.4319763183594 -1973.4990234375 262.9954528808594 -1973.499755859375 L 374.5003051757812 -1973.499755859375 L 374.5003051757812 -1884.498901367188 Z" stroke="none"/>
    <path d="M 374.0003051757812 -1884.998901367188 L 374.0003051757812 -1972.999755859375 L 262.99560546875 -1972.999755859375 C 260.5445556640625 -1972.9990234375 258.1275634765625 -1972.150512695312 256.1896057128906 -1970.6103515625 C 254.2905883789062 -1969.101806640625 252.9225311279297 -1966.996826171875 252.3334808349609 -1964.6787109375 C 252.2389984130859 -1964.023803710938 252.1354675292969 -1963.375366210938 252.0255432128906 -1962.749389648438 C 252.0138092041016 -1962.577514648438 252.0057373046875 -1962.403198242188 251.9997253417969 -1962.192016601562 L 251.925537109375 -1962.193115234375 C 246.2457580566406 -1931.349853515625 219.4142913818359 -1908.999877929688 188.0001220703125 -1908.999877929688 C 170.666015625 -1908.999877929688 154.3508148193359 -1915.768676757812 142.0599212646484 -1928.059448242188 C 132.6509094238281 -1937.467895507812 126.4332656860352 -1949.2685546875 124.0662460327148 -1962.202758789062 L 123.9939651489258 -1962.202270507812 C 123.9907684326172 -1962.378540039062 123.9831848144531 -1962.557006835938 123.9714126586914 -1962.733520507812 C 123.8591156005859 -1963.37744140625 123.7553482055664 -1964.030395507812 123.6628189086914 -1964.675903320312 C 123.0740509033203 -1966.994873046875 121.7062301635742 -1969.1005859375 119.8071670532227 -1970.609619140625 C 117.9240417480469 -1972.106079101562 115.5741882324219 -1972.954833984375 113.1893920898438 -1972.999877929688 L 1.000017881393433 -1972.999755859375 L 1.000017881393433 -1884.999755859375 L 374.0003051757812 -1884.998901367188 M 375.0003051757812 -1883.998779296875 L 375.0003051757812 -1883.998901367188 L 1.784667983883992e-05 -1883.999755859375 L 1.784667983883992e-05 -1973.999755859375 L 113.1995697021484 -1973.999877929688 C 115.805419921875 -1973.952514648438 118.3729705810547 -1973.026611328125 120.4293212890625 -1971.392456054688 C 122.513069152832 -1969.736694335938 124.0104141235352 -1967.420043945312 124.6453704833984 -1964.869140625 C 124.7407684326172 -1964.19970703125 124.8484649658203 -1963.521850585938 124.9654159545898 -1962.854614257812 C 124.9804153442383 -1962.644287109375 124.9899673461914 -1962.431030273438 124.9938201904297 -1962.220581054688 L 124.9956207275391 -1962.683471679688 C 127.2839202880859 -1949.832885742188 133.4284210205078 -1938.104614257812 142.7670135498047 -1928.7666015625 C 154.8690643310547 -1916.664672851562 170.9331665039062 -1909.999877929688 188.0001220703125 -1909.999877929688 C 219.0390167236328 -1909.999877929688 245.5343627929688 -1932.160888671875 251.0001220703125 -1962.69384765625 L 251.0001220703125 -1962.220581054688 C 251.007568359375 -1962.481689453125 251.0179138183594 -1962.682250976562 251.0316162109375 -1962.871215820312 C 251.1459197998047 -1963.518676757812 251.25341796875 -1964.192016601562 251.3511199951172 -1964.872802734375 C 251.9864654541016 -1967.422485351562 253.4839630126953 -1969.738159179688 255.5676116943359 -1971.393310546875 C 257.6814270019531 -1973.0732421875 260.3193054199219 -1973.998901367188 262.9953308105469 -1973.999755859375 L 375.0003051757812 -1973.999755859375 L 375.0003051757812 -1883.999755859375 L 375.0003051757812 -1883.998779296875 Z" stroke="none" fill="#f1f1f1"/>
  </g>
</svg>
